<svg width="190" height="50" viewBox="0 0 190 50" fill="none" xmlns="http://www.w3.org/2000/svg">
<path d="M12.8392 10L15.7218 20.2365L25.05 20.2365L17.5033 26.5631L20.3859 36.7996L12.8392 30.4731L5.2925 36.7996L8.17508 26.5631L0.628395 20.2365L9.95661 20.2365L12.8392 10Z" fill="#FACC16"/>
<path d="M52.3451 10L55.2276 20.2365L64.5559 20.2365L57.0092 26.5631L59.8917 36.7996L52.3451 30.4731L44.7984 36.7996L47.6809 26.5631L40.1343 20.2365L49.4625 20.2365L52.3451 10Z" fill="#FACC16"/>
<path d="M91.8509 10L94.7335 20.2365L104.062 20.2365L96.515 26.5631L99.3976 36.7996L91.8509 30.4731L84.3042 36.7996L87.1868 26.5631L79.6401 20.2365L88.9683 20.2365L91.8509 10Z" fill="#FACC16"/>
<path d="M131.357 10L134.239 20.2365L143.568 20.2365L136.021 26.5631L138.903 36.7996L131.357 30.4731L123.81 36.7996L126.693 26.5631L119.146 20.2365L128.474 20.2365L131.357 10Z" fill="#FACC16"/>
<path d="M166.839 10L169.722 20.2365L179.05 20.2365L171.503 26.5631L174.386 36.7996L166.839 30.4731L159.293 36.7996L162.175 26.5631L154.628 20.2365L163.957 20.2365L166.839 10Z" fill="#FACC16"/>
</svg>
